<?xml version="1.0" encoding="utf-8"?>
<!-- Generator: Adobe Illustrator 26.1.0, SVG Export Plug-In . SVG Version: 6.00 Build 0)  -->
<svg version="1.1" id="Layer_1" xmlns="http://www.w3.org/2000/svg" xmlns:xlink="http://www.w3.org/1999/xlink" x="0px" y="0px"
	 viewBox="0 0 599.82 599.93" style="enable-background:new 0 0 599.82 599.93;" xml:space="preserve">
<g>
	<path d="M299.96,580.35c-74.89,0-145.3-29.17-198.26-82.12c-52.96-52.96-82.12-123.37-82.12-198.26
		c0-74.89,29.16-145.3,82.12-198.26c52.96-52.96,123.37-82.12,198.26-82.12c74.89,0,145.3,29.16,198.26,82.12
		c52.96,52.96,82.12,123.37,82.12,198.26c0,74.89-29.16,145.3-82.12,198.26C445.27,551.18,374.86,580.35,299.96,580.35z
		 M299.96,46.59c-139.71,0-253.38,113.67-253.38,253.38s113.67,253.38,253.38,253.38c139.72,0,253.38-113.67,253.38-253.38
		S439.68,46.59,299.96,46.59z"/>
</g>
<g>
	<g>
		<path d="M366.53,448.27c-3.9,0-8.45-0.8-13.57-3.04c-0.78-0.34-1.51-0.77-2.19-1.29l-109.15-83.68l-38.44-18.58l-66.71-22.46
			c-0.05-0.02-0.11-0.04-0.16-0.06c-1.68-0.6-16.49-6.24-18.24-20.26c-1.51-12.06,8.94-20.16,18.45-23.49l267.29-104.85
			c4.38-1.89,18.33-7.01,28.32-0.49c3.06,2,8.19,6.8,8.19,16.53c0,0.69-0.07,1.37-0.2,2.04l-47.67,240.33
			c-0.13,0.63-0.31,1.26-0.55,1.86c-0.45,1.13-4.71,11.13-15.34,15.49C374.02,447.37,370.64,448.27,366.53,448.27z M362.43,426.42
			c2.55,0.95,4.62,1.12,6.17,0.48c1.77-0.72,3-2.48,3.53-3.35l46.72-235.56c-2.12,0.3-4.95,1.09-6.8,1.9
			c-0.13,0.06-0.26,0.11-0.39,0.16l-267.67,105c-0.14,0.06-0.29,0.11-0.44,0.16c-1.25,0.45-2.77,1.25-3.82,1.99
			c0.91,0.79,2.36,1.69,3.62,2.18l67.16,22.61c0.42,0.14,0.82,0.31,1.22,0.5l40,19.33c0.64,0.31,1.25,0.69,1.82,1.12L362.43,426.42z
			"/>
	</g>
	<g>
		<path d="M289.33,383.61l-43.51,39.67c0,1.28-7.12,1.28-7.12,0l8.33-72.72l0.46-1.28c0,0,122-109.67,127-114.33
			c5-4.67,3.33-5.67,3.33-5.67c0.33-5.67-9,0-9,0L207.16,331.94c0,0,20.33,66.67,24.33,79.33c4,12.67,6.36,12.44,7.21,12.44"/>
		<path d="M242.26,434.74c-1.94,0-3.64-0.22-5.11-0.61c-8.99-0.95-12.81-10.61-15.68-19.7c-3.97-12.57-23.53-76.71-24.36-79.43
			c-1.38-4.52,0.43-9.4,4.41-11.93l161.67-102.67c0.06-0.04,0.12-0.08,0.18-0.11c5.16-3.13,12.64-6.06,19-2.23
			c3.15,1.9,5.19,5.03,5.78,8.71c0.18,0.62,0.3,1.26,0.37,1.91c0.64,6.06-3.34,10.63-6.87,13.93
			c-4.66,4.35-106.33,95.76-124.53,112.12l-5.63,49.17l30.77-28.05c4.29-3.91,10.93-3.6,14.83,0.68c3.91,4.29,3.6,10.93-0.68,14.83
			l-42.63,38.86C251.69,432.74,248.11,434.74,242.26,434.74z M219.53,336.52c3.07,10.05,8.64,28.29,13.49,44.1l3.58-31.26
			c0.09-0.79,0.27-1.58,0.54-2.33l0.46-1.28c0.59-1.64,1.57-3.12,2.87-4.28c18.76-16.86,45.16-40.6,69.04-62.08L219.53,336.52z"/>
	</g>
	<g>
		<path d="M289.33,394.11c-2.26,0-4.54-0.73-6.46-2.23l-42.3-33.05c-4.57-3.57-5.38-10.17-1.81-14.74
			c3.57-4.57,10.17-5.38,14.74-1.81l42.3,33.05c4.57,3.57,5.38,10.17,1.81,14.74C295.54,392.72,292.45,394.11,289.33,394.11z"/>
	</g>
</g>
</svg>
